<svg id="Layer_1" data-name="Layer 1" xmlns="http://www.w3.org/2000/svg" viewBox="0 0 128 128"><defs><style>.cls-1{fill:#010101;}.cls-2{fill:#dededd;}.cls-3{fill:#fff;}.cls-4{fill:#272626;}</style></defs><g id="OGS_Logo" data-name="OGS Logo"><g id="g10"><g id="g13"><g id="g16"><path id="path18" class="cls-1" d="M128,64A64,64,0,0,1,0,64Z"/><path id="path20" class="cls-2" d="M64,0a64,64,0,0,1,64,64H0A64,64,0,0,1,64,0Z"/></g></g><g id="g22"><path id="path24" class="cls-3" d="M8.72,57.57a6.91,6.91,0,0,1-.13-.82c-.06-.53-.16-1.32-.19-2.32a40.18,40.18,0,0,1,.65-8.25,50.48,50.48,0,0,1,1.31-5.39A48.25,48.25,0,0,1,12.57,35a47.21,47.21,0,0,1,3.18-5.91,46.22,46.22,0,0,1,4.15-5.62c.74-.9,1.59-1.73,2.4-2.58s1.71-1.61,2.57-2.38a44.19,44.19,0,0,1,5.54-4,40.12,40.12,0,0,1,5.68-2.84c.95-.35,1.86-.7,2.76-1s1.78-.5,2.63-.71a39.84,39.84,0,0,1,4.66-.77,35,35,0,0,1,3.63-.14c1,0,1.8.13,2.33.16l.82.09-.7.46c-.46.27-1.11.71-1.95,1.19s-1.81,1.16-2.93,1.82c-.57.33-1.14.74-1.74,1.14s-1.26.76-1.89,1.25-1.3.91-2,1.39l-2,1.54c-1.39,1.07-2.8,2.22-4.21,3.45-.71.6-1.38,1.27-2.1,1.9s-1.36,1.36-2.07,2-1.35,1.41-2,2.12-1.36,1.45-2,2.23-1.29,1.5-1.91,2.28-1.24,1.55-1.84,2.34l-1.77,2.36c-.54.81-1.12,1.58-1.66,2.38C19,40.76,18,42.33,17,43.83s-1.88,3-2.7,4.32c-1.66,2.72-3,5.07-4,6.75Z"/></g><g id="g26"><path id="path28" class="cls-4" d="M74.64,117.09l2.52-1.83c1.58-1.14,3.8-2.73,6.35-4.64,1.29-.94,2.64-2,4.06-3.08s2.87-2.26,4.33-3.49c.74-.61,1.46-1.26,2.21-1.88l2.2-2c.72-.67,1.44-1.36,2.15-2.06s1.42-1.39,2.1-2.11,1.34-1.46,2-2.17l1.93-2.22c.6-.77,1.24-1.49,1.83-2.25s1.16-1.51,1.7-2.27c1.1-1.52,2.11-3,3-4.5.46-.75.91-1.48,1.35-2.18s.79-1.43,1.19-2.11.71-1.36,1.08-2,.69-1.25,1-1.84c.55-1.18,1.14-2.21,1.54-3.09s.78-1.57,1-2,.39-.74.39-.74.07.28.16.81.25,1.31.37,2.31a32.88,32.88,0,0,1,.2,3.62,37.91,37.91,0,0,1-.33,4.72c-.14.86-.3,1.75-.47,2.68s-.48,1.86-.73,2.83a41.73,41.73,0,0,1-2.31,5.92,45.33,45.33,0,0,1-3.44,5.89c-.7.93-1.39,1.88-2.14,2.78s-1.51,1.8-2.35,2.63a48.79,48.79,0,0,1-10.8,8.36,49.41,49.41,0,0,1-5.59,2.73A47.4,47.4,0,0,1,86,115.7a39.8,39.8,0,0,1-8.15,1.41c-1,.06-1.8,0-2.34,0s-.83,0-.83,0Z"/></g></g></g><path class="cls-3" d="M107.78,64V83.32a5.14,5.14,0,0,1-5.14,5.13H25.35a5.14,5.14,0,0,1-5.13-5.13V64h5.13V83.32h77.29s0,.56,0-19.33Z"/><path d="M107.78,44.68V64h-5.13c0-5,0-11.35,0-19.31H25.35V64H20.22V44.68a5.13,5.13,0,0,1,5.13-5.13h77.29A5.14,5.14,0,0,1,107.78,44.68Z"/><path class="cls-3" d="M36.68,72.38H34a2.61,2.61,0,0,0-2.62,2.27,2.57,2.57,0,0,0,2.55,2.86h2.67a2.62,2.62,0,0,0,2.62-2.28A2.57,2.57,0,0,0,36.68,72.38Z"/><path d="M46.08,64H38.21c0-.09,0-.19,0-.29a2.61,2.61,0,0,1,2.61-2.27h2.61a2.61,2.61,0,0,1,2.62,2.27C46.07,63.8,46.08,63.9,46.08,64Z"/><path class="cls-3" d="M46.08,64a2.56,2.56,0,0,1-2.56,2.57H40.79A2.57,2.57,0,0,1,38.21,64Z"/><path d="M59.77,64H51.89a2.57,2.57,0,0,1,2.57-2.56h2.73A2.58,2.58,0,0,1,59.77,64Z"/><path class="cls-3" d="M59.77,64a1.71,1.71,0,0,1,0,.31,2.61,2.61,0,0,1-2.61,2.26h-2.6a2.62,2.62,0,0,1-2.62-2.26c0-.11,0-.21,0-.31Z"/><path class="cls-3" d="M73.44,64c0,.1,0,.2,0,.31a2.59,2.59,0,0,1-2.6,2.26H68.2a2.61,2.61,0,0,1-2.61-2.26c0-.11,0-.21,0-.31Z"/><path d="M73.44,64H65.57a2.57,2.57,0,0,1,2.57-2.56h2.74A2.56,2.56,0,0,1,73.44,64Z"/><path d="M87.13,64H79.26c0-.09,0-.19,0-.29a2.58,2.58,0,0,1,2.6-2.27h2.68A2.58,2.58,0,0,1,87.13,64Z"/><path class="cls-3" d="M87.13,64c0,.1,0,.2,0,.31a2.6,2.6,0,0,1-2.62,2.26H81.82A2.55,2.55,0,0,1,79.26,64Z"/><path d="M91.33,50.49h-2.6a2.61,2.61,0,0,0-2.62,2.27,2.57,2.57,0,0,0,2.55,2.86H91.4A2.57,2.57,0,0,0,94,52.76,2.61,2.61,0,0,0,91.33,50.49Z"/><path d="M75,55.62h2.67a2.61,2.61,0,0,0,2.62-2.27,2.57,2.57,0,0,0-2.55-2.86H75.05a2.61,2.61,0,0,0-2.62,2.27A2.57,2.57,0,0,0,75,55.62Z"/><path d="M61.3,55.62H64a2.61,2.61,0,0,0,2.62-2.27A2.57,2.57,0,0,0,64,50.49H61.37a2.61,2.61,0,0,0-2.62,2.27A2.57,2.57,0,0,0,61.3,55.62Z"/><path d="M47.62,55.62h2.67a2.61,2.61,0,0,0,2.62-2.27,2.57,2.57,0,0,0-2.55-2.86H47.69a2.61,2.61,0,0,0-2.62,2.27A2.57,2.57,0,0,0,47.62,55.62Z"/><path d="M33.94,55.62h2.67a2.61,2.61,0,0,0,2.62-2.27,2.57,2.57,0,0,0-2.55-2.86H34a2.61,2.61,0,0,0-2.62,2.27A2.57,2.57,0,0,0,33.94,55.62Z"/><path class="cls-3" d="M94.13,72.38H91.46a2.6,2.6,0,0,0-2.61,2.27,2.56,2.56,0,0,0,2.55,2.86h2.67a2.61,2.61,0,0,0,2.61-2.28A2.56,2.56,0,0,0,94.13,72.38Z"/><path class="cls-3" d="M80.45,72.38H47.69a2.61,2.61,0,0,0-2.62,2.27,2.57,2.57,0,0,0,2.55,2.86H80.39A2.61,2.61,0,0,0,83,75.23,2.56,2.56,0,0,0,80.45,72.38Z"/></svg>